<svg id="Layer_1" enable-background="new 0 0 512.011 512.011" height="512" viewBox="0 0 512.011 512.011" width="512" xmlns="http://www.w3.org/2000/svg"><g><path d="m344.006 152.006h16v16c0 4.418 3.582 8 8 8s8-3.582 8-8v-16h16c13.233 0 24-10.767 24-24v-16h32c4.418 0 8-3.582 8-8s-3.582-8-8-8h-32v-32c0-4.418-3.582-8-8-8s-8 3.582-8 8v32h-16c-13.233 0-24 10.767-24 24v16h-16c-4.418 0-8 3.582-8 8s3.582 8 8 8zm32-32c0-4.411 3.589-8 8-8h16v16c0 4.411-3.589 8-8 8h-16z"/><path d="m181.901 384.288c-42.598 11.612-65.81-11.515-54.178-54.178 1.041-3.816-.864-7.82-4.481-9.421-3.618-1.599-7.862-.315-9.985 3.021l-43.852 68.91c-9.182 14.427-7.148 32.949 4.943 45.042 12.032 12.03 30.544 14.17 45.042 4.943l68.91-43.852c3.338-2.123 4.621-6.367 3.021-9.985-1.599-3.616-5.599-5.524-9.42-4.48zm-71.1 44.82c-8.053 5.123-18.39 3.989-25.138-2.76-6.749-6.748-7.884-17.086-2.76-25.138l26.441-41.55c3.182 23.706 19.253 39.819 43.005 43.007z"/><path d="m504.848 444.216-47.908-47.908c-10.826-10.825-25.22-16.787-40.529-16.787h-25.575l-44.722-44.722c83.122-85.237 140.256-191.589 165.388-308.106 3.376-15.654-10.553-29.554-26.185-26.183-116.517 25.131-222.868 82.265-308.104 165.388l-44.722-44.722v-25.575c0-15.31-5.962-29.703-16.787-40.53l-47.908-47.906c-9.549-9.551-25.01-9.554-34.563-.001l-26.069 26.068c-9.551 9.551-9.553 25.011 0 34.563l47.908 47.908c10.826 10.825 25.22 16.787 40.529 16.787h25.575l44.722 44.722c-83.123 85.238-140.257 191.59-165.388 308.106-3.377 15.657 10.555 29.551 26.185 26.183 116.517-25.131 222.868-82.265 308.104-165.388l44.722 44.722v25.575c0 15.31 5.962 29.703 16.787 40.53l47.908 47.906c9.549 9.551 25.01 9.554 34.563.001l26.067-26.068c9.552-9.549 9.555-25.01.002-34.563zm-16.157-428.066c4.338-.933 8.085 2.931 7.17 7.17 10.416 2.248 10.436 2.252-.001.001-3.68 17.063-8.085 33.852-13.139 50.354-7.903-20.301-24.085-36.483-44.386-44.386 16.503-5.053 33.293-9.458 50.356-13.139zm-81.041 23.431c.803.271 1.661.424 2.556.424 34.076 0 61.8 27.724 61.8 61.8 0 .895.153 1.752.424 2.555-30.2 82.746-77.549 157.164-137.782 218.972l-22.195-22.195c19.232-20.779 33.081-44.329 39.271-67.027 14.782-54.203-18.777-88.837-73.823-73.823-22.698 6.19-46.248 20.039-67.027 39.271l-22.195-22.195c61.808-60.233 136.225-107.582 218.971-137.782zm-223.117 220.267 67.631 67.631c-28.337 14.29-55.58 16.186-69.697 2.066-14.117-14.116-12.222-41.36 2.066-69.697zm81.985 59.355-73.71-73.71c5.132-7.927 11.183-15.775 18.078-23.293 8.901 8.901 69.545 69.546 78.925 78.926-7.518 6.894-15.366 12.946-23.293 18.077zm-44.327-108.326c26.436-24.243 57.015-38.082 80.331-38.082 51.753 0 46.341 64.96-1.397 117.017-9.364-9.365-69.458-69.46-78.934-78.935zm-126.59-94.386c-11.036 0-21.412-4.298-29.216-12.102l-47.908-47.908c-3.298-3.298-3.298-8.637 0-11.935.1 0-1.446 1.447 26.069-26.069 3.298-3.298 8.637-3.299 11.935.001l47.908 47.906c7.804 7.805 12.102 18.181 12.102 29.217v9.575l-30.828-30.828c-3.125-3.123-8.189-3.123-11.314 0-3.124 3.125-3.124 8.189 0 11.314l30.828 30.828h-9.576zm-72.281 379.37c-4.268.921-8.097-2.869-7.169-7.171 3.68-17.063 8.085-33.852 13.139-50.354 7.903 20.301 24.085 36.483 44.386 44.386-16.503 5.054-33.292 9.459-50.356 13.139zm81.041-23.431c-.803-.271-1.661-.424-2.556-.424-34.076 0-61.8-27.724-61.8-61.8 0-.895-.153-1.752-.424-2.555 30.2-82.746 77.549-157.164 137.782-218.972l22.195 22.195c-19.232 20.779-33.081 44.329-39.271 67.027-13.252 48.593 12.216 77.363 49.229 77.363 32.741 0 67.32-20.32 91.621-42.811l22.195 22.195c-61.808 60.233-136.225 107.582-218.971 137.782zm389.172-4.965c-25.746 25.746-26.171 26.069-26.068 26.069-3.298 3.298-8.637 3.299-11.935-.001l-47.908-47.906c-7.804-7.805-12.102-18.181-12.102-29.217v-9.575l30.828 30.828c3.126 3.124 8.189 3.123 11.314 0 3.124-3.125 3.124-8.189 0-11.314l-30.828-30.828h9.575c11.036 0 21.412 4.298 29.216 12.102l47.908 47.908c3.299 3.297 3.3 8.636 0 11.934z"/></g></svg>