<svg xmlns="http://www.w3.org/2000/svg" version="1.1" xmlns:xlink="http://www.w3.org/1999/xlink" width="512" height="512" x="0" y="0" viewBox="0 0 256 256" style="enable-background:new 0 0 512 512" xml:space="preserve" class=""><g><path fill="#76ffba" d="m210.947 93.924-11.33-11.33-3.74 3.741a10.216 10.216 0 0 1-14.37 0l-11.83-11.83a10.024 10.024 0 0 1-2.94-6.49 10.187 10.187 0 0 1 2.94-7.881l3.74-3.75-11.33-11.329a4.67 4.67 0 0 0-6.57 0l-8.16 8.159L131.2 69.375l-23.1 23.1 7.01 7.009 9.89 9.891L146.637 131l9.89 9.889 7.01 7.011 22.02-22.02 16.53-16.531 8.86-8.86a4.623 4.623 0 0 0 0-6.565z" opacity="0" data-original="#76ffba" class=""></path><path fill="#13bf6d" d="m189.907 107.505-33.38 33.379-9.89-9.884L125 109.375l-9.89-9.891 33.39-33.39a14.549 14.549 0 0 0 18.24 1.921 10.024 10.024 0 0 0 2.94 6.49l11.83 11.83a10.112 10.112 0 0 0 6.49 2.93v.01a14.549 14.549 0 0 0 1.907 18.23z" opacity="0" data-original="#13bf6d" class=""></path><path fill="#76ffba" d="M146.637 131 125 109.375A15.295 15.295 0 0 1 146.637 131z" opacity="0" data-original="#76ffba" class=""></path><path fill="#efefef" d="m125.567 185.864 22.34-22.339-7.01-7.01-9.89-9.89-21.65-21.62-9.88-9.891-7.01-7.009-23.4 23.4c-2.7-35.165 27.416-64.8 62.13-62.13l-23.1 23.1 7.01 7.009 9.89 9.891L146.637 131l9.89 9.889 7.01 7.011 22.02-22.02c1.196 33.442-26.845 61.169-59.99 59.984z" opacity="0" data-original="#efefef" class=""></path><path fill="#f0c020" d="M213.984 200c-3.723-1.231-7.568-2.306-9.727-11.605-1.988 8.565-5.173 10.1-9.726 11.605 7.426 2.453 8.546 6.516 9.726 11.6 2.035-8.771 5.401-10.176 9.727-11.6zM114.675 28.833c-3.723-1.23-7.568-2.3-9.727-11.6-1.988 8.564-5.173 10.1-9.726 11.6 7.426 2.454 8.546 6.517 9.726 11.6 2.035-8.766 5.401-10.171 9.727-11.6zM78.651 43.7c-3.723-1.23-7.568-2.3-9.727-11.6-1.988 8.56-5.173 10.1-9.724 11.6 7.426 2.454 8.546 6.517 9.726 11.6 2.033-8.766 5.399-10.171 9.725-11.6z" opacity="0" data-original="#f0c020" class=""></path><path fill="#fc5d3d" d="m58.58 232.51-1.4-1.4-32.3-32.3-1.39-1.39a2.161 2.161 0 0 0-3.08 0l-16.42 16.4L42.17 252l16.41-16.42a2.167 2.167 0 0 0 0-3.07z" opacity="0" data-original="#fc5d3d" class=""></path><path fill="#efefef" d="m65.05 223.24-7.87 7.87-32.3-32.3 7.88-7.87a3.558 3.558 0 0 1 4.98 0l.55.55v.01h.01l26.2 26.19c0 .02.54.55.55.56a3.55 3.55 0 0 1 0 4.99z" opacity="0" data-original="#efefef" class=""></path><path fill="#72c1e8" d="m197.417 23.488 1.4 1.4 32.293 32.293 1.4 1.4a2.166 2.166 0 0 0 3.081 0l16.414-16.4L213.832 4l-16.415 16.417a2.172 2.172 0 0 0 0 3.071z" opacity="0" data-original="#72c1e8" class=""></path><path fill="#efefef" d="M231.107 57.185 198.817 24.9l-7.87 7.86a3.55 3.55 0 0 0 0 4.99l.01.01.55.55 26.2 26.2.55.55a3.553 3.553 0 0 0 4.99 0l7.87-7.861z" opacity="0" data-original="#efefef" class=""></path><path fill="#ffb69f" d="M217.627 81.105a5.737 5.737 0 0 1-7.38-3.44l-1.52-4.181-12.85 12.851a10.216 10.216 0 0 1-14.37 0l-11.83-11.83a10.024 10.024 0 0 1-2.94-6.49 10.187 10.187 0 0 1 2.94-7.881l3.74-3.75 18.09-18.079 26.2 26.2 3.36 9.22a5.758 5.758 0 0 1-3.44 7.38z" opacity="0" data-original="#ffb69f" class=""></path><path fill="#f0c020" d="m52.91 147.66 16.16-16.16c-2.71-35.16 27.41-64.8 62.13-62.13l16.16-16.16C90.4 37.84 37.34 90 52.91 147.66zm149.18-38.32-16.53 16.53a58.329 58.329 0 0 1-59.99 59.99l-16.53 16.53a77.074 77.074 0 0 0 93.05-93.05z" opacity="0" data-original="#f0c020" class=""></path><path fill="#76ffba" d="M131.01 146.62 109.36 125l-9.88-9.89-7.01-7.01-23.4 23.4-16.16 16.16-7.85 7.85a4.632 4.632 0 0 0-.01 6.56c0 .01 4.77 4.78 11.33 11.34l3.75-3.75a10.191 10.191 0 0 1 14.37 0l11.83 11.83a10.191 10.191 0 0 1 0 14.37l-3.75 3.75 11.33 11.33a4.674 4.674 0 0 0 6.58 0l8.55-8.55 16.53-16.53 22.34-22.34z" opacity="0" data-original="#76ffba" class=""></path><path fill="#ffb69f" d="M89.27 187.98a10.1 10.1 0 0 0-2.94-6.49L74.5 169.66a10.191 10.191 0 0 0-14.37 0l-3.75 3.75-9.1 9.1-1.52-4.18a5.758 5.758 0 0 0-10.82 3.94l3.35 9.22.01.01 26.2 26.19 21.83-21.83a10.1 10.1 0 0 0 2.94-7.88z" opacity="0" data-original="#ffb69f" class=""></path><path fill="#13bf6d" d="m140.9 156.51-33.39 33.39a14.552 14.552 0 0 0-18.24-1.92 10.1 10.1 0 0 0-2.94-6.49L74.5 169.66a10.053 10.053 0 0 0-6.49-2.94 14.562 14.562 0 0 0-1.91-18.23l33.38-33.38 9.88 9.89 21.65 21.62z" opacity="0" data-original="#13bf6d" class=""></path><g fill="#76ffba"><path d="M131.007 146.625a15.3 15.3 0 0 1-21.65-21.62zM132.106 95.662a2.5 2.5 0 0 1 0-3.535l3.925-3.925a2.5 2.5 0 0 1 3.535 3.535l-3.924 3.925a2.5 2.5 0 0 1-3.536 0zm11-11a2.5 2.5 0 0 1 0-3.535l4.7-4.7a2.5 2.5 0 0 1 2.8-.511 17.668 17.668 0 0 0 18.433-2.415 2.5 2.5 0 1 1 3.17 3.867 22.676 22.676 0 0 1-22.036 3.766l-3.525 3.524a2.5 2.5 0 0 1-3.548.009zM83.454 182.142a2.5 2.5 0 0 1 .347-3.519 22.681 22.681 0 0 1 22.038-3.766l3.524-3.523a2.5 2.5 0 1 1 3.535 3.535l-4.695 4.695a2.494 2.494 0 0 1-2.8.511 17.67 17.67 0 0 0-18.433 2.415 2.5 2.5 0 0 1-3.516-.348zm32.98-14.344a2.5 2.5 0 0 1 0-3.535l3.924-3.925a2.5 2.5 0 0 1 3.536 3.535l-3.924 3.927a2.5 2.5 0 0 1-3.536 0z" fill="#76ffba" opacity="0" data-original="#76ffba" class=""></path></g><path fill="#ffcbc2" d="M37.391 239.981a2.5 2.5 0 0 1 0-3.535l3.368-3.368-19.989-19.989a2.5 2.5 0 0 1 3.535-3.535l21.757 21.757a2.5 2.5 0 0 1 0 3.535l-5.136 5.135a2.5 2.5 0 0 1-3.535 0z" opacity="0" data-original="#ffcbc2" class=""></path><path fill="#c5e5ff" d="m231.694 46.446-21.757-21.757a2.5 2.5 0 0 1 0-3.535l5.136-5.135a2.5 2.5 0 1 1 3.535 3.535l-3.368 3.368 19.989 19.989a2.5 2.5 0 0 1-3.535 3.535z" opacity="0" data-original="#c5e5ff" class=""></path><path d="M214.768 197.621c-3.5-1.155-6.243-1.9-8.076-9.8a2.5 2.5 0 0 0-4.87 0c-1.792 7.719-4.292 8.546-8.075 9.8a2.5 2.5 0 0 0 0 4.748c6.284 2.076 7 5.147 8.075 9.795a2.5 2.5 0 0 0 4.871 0c1.79-7.719 4.427-8.59 8.075-9.795a2.5 2.5 0 0 0 0-4.748zm-10.461 6.569a12.98 12.98 0 0 0-3.914-4.138 12.4 12.4 0 0 0 3.874-4.36 12.77 12.77 0 0 0 3.738 4.326 12.369 12.369 0 0 0-3.698 4.172zM94.438 31.207c6.284 2.076 7 5.147 8.075 9.8a2.5 2.5 0 0 0 4.871 0c1.79-7.719 4.427-8.59 8.075-9.8a2.5 2.5 0 0 0 0-4.748c-3.505-1.154-6.243-1.9-8.076-9.8a2.5 2.5 0 0 0-4.87 0c-1.792 7.72-4.292 8.546-8.075 9.8a2.5 2.5 0 0 0 0 4.748zm10.52-6.676a12.765 12.765 0 0 0 3.738 4.325 12.373 12.373 0 0 0-3.7 4.173 12.982 12.982 0 0 0-3.914-4.139 12.39 12.39 0 0 0 3.876-4.359zM58.414 46.074c6.284 2.076 7 5.147 8.075 9.8a2.5 2.5 0 0 0 4.871 0c1.79-7.72 4.427-8.591 8.075-9.8a2.5 2.5 0 0 0 0-4.748c-3.5-1.154-6.243-1.9-8.076-9.8a2.5 2.5 0 0 0-4.87 0c-1.792 7.72-4.292 8.546-8.075 9.8a2.5 2.5 0 0 0 0 4.748zm10.52-6.674a12.754 12.754 0 0 0 3.738 4.325 12.373 12.373 0 0 0-3.7 4.173 12.982 12.982 0 0 0-3.914-4.139 12.39 12.39 0 0 0 3.876-4.359zM164.156 98.977a2.5 2.5 0 0 0 3.535-3.536l-7.127-7.126a2.5 2.5 0 1 0-3.535 3.536zM91.844 157.023a2.5 2.5 0 1 0-3.535 3.536l7.126 7.126a2.5 2.5 0 1 0 3.535-3.536zM123.24 107.6a2.508 2.508 0 0 0-.02 3.54 2.573 2.573 0 0 0 3.54.009l.01-.009a12.8 12.8 0 0 1 18.089 18.1 2.5 2.5 0 0 0 3.561 3.51 17.795 17.795 0 0 0-25.18-25.15z" fill="#000000" opacity="1" data-original="#000000" class=""></path><path d="M253.78 40.41a2.574 2.574 0 0 0-3.54 0l-16.19 16.18-34.63-34.64L215.6 5.77a2.5 2.5 0 0 0 0-3.53 2.559 2.559 0 0 0-3.52-.02c-.011.009-.011.009-.02.009l-16.411 16.42a4.624 4.624 0 0 0-.33 6.2l-6.139 6.13a6.046 6.046 0 0 0-1.029 7.15L173.42 52.86l-9.57-9.57a7.16 7.16 0 0 0-10.1-.011l-7.159 7.159a79.245 79.245 0 0 0-34.061-1.088 2.5 2.5 0 0 0 .93 4.91 74.189 74.189 0 0 1 28.97.34l-12.2 12.2a60.861 60.861 0 0 0-63.73 63.74l-12.21 12.2a73.821 73.821 0 0 1 21.169-68.665A75.407 75.407 0 0 1 95.14 60.319a2.5 2.5 0 0 0 1.17-3.34 2.572 2.572 0 0 0-3.34-1.16 80.719 80.719 0 0 0-21.183 14.837 78.65 78.65 0 0 0-21.654 76.25l-6.843 6.844a7.129 7.129 0 0 0-.01 10.09l9.563 9.572-4.553 4.558-.17-.45v-.02a8.261 8.261 0 1 0-15.53 5.64l1.592 4.377a5.914 5.914 0 0 0-3.192 1.663l-6.147 6.131a4.6 4.6 0 0 0-6.193.329s-.01 0-.01.009L2.23 212.05a2.483 2.483 0 0 0 0 3.54 2.564 2.564 0 0 0 3.53 0l16.19-16.18 34.63 34.64-16.18 16.179a2.5 2.5 0 0 0 3.54 3.541v-.01l16.41-16.41a4.622 4.622 0 0 0 .329-6.2l6.141-6.14a6.035 6.035 0 0 0 1.027-7.137l14.728-14.728 9.565 9.565a7.17 7.17 0 0 0 10.11.01l7.583-7.584a78.68 78.68 0 0 0 37.627-.6 2.5 2.5 0 0 0-1.28-4.83 74 74 0 0 1-32.12 1.2l12.52-12.52a60.331 60.331 0 0 0 43.62-17.77c12.292-12.249 18.341-28.638 17.88-43.74l12.52-12.51a73.932 73.932 0 0 1-21.075 66.237 75.769 75.769 0 0 1-15.5 11.763 2.49 2.49 0 0 0-.92 3.409 2.569 2.569 0 0 0 3.41.931 80.805 80.805 0 0 0 16.671-12.7 78.83 78.83 0 0 0 21.651-73.886l7.878-7.878a7.131 7.131 0 0 0 0-10.1l-9.567-9.542 4.572-4.568.179.491v.009a8.25 8.25 0 0 0 10.571 4.928c.009-.01.009-.01.02-.01a8.268 8.268 0 0 0 4.92-10.591l-1.592-4.376a6.024 6.024 0 0 0 3.192-1.653l6.142-6.142a4.617 4.617 0 0 0 6.207-.338l16.411-16.411a2.484 2.484 0 0 0 .01-3.529zM39.24 177.24l.01-.011a3.25 3.25 0 0 1 4.15 1.941l1.53 4.2a2.5 2.5 0 0 0 4.11.909L61.9 171.43a7.68 7.68 0 0 1 10.784-.042L59.942 184.13a2.5 2.5 0 0 0 3.536 3.535l12.744-12.744 4.85 4.851-12.744 12.744a2.5 2.5 0 1 0 3.535 3.535l12.742-12.742a7.7 7.7 0 0 1-.045 10.791L64.5 214.16l-24.051-24.041-3.159-8.7a3.261 3.261 0 0 1 1.95-4.179zm24.04 44.23-6.1 6.1-28.76-28.76 6.1-6.1a1.038 1.038 0 0 1 1.45 0l27.33 27.33a1.022 1.022 0 0 1-.02 1.43zm145.9-122.75-47.41 47.41a2.5 2.5 0 0 0 3.54 3.53v-.011l17.61-17.61a55.946 55.946 0 0 1-51.184 51.189l17.934-17.938a2.472 2.472 0 0 0 0-3.53 2.542 2.542 0 0 0-3.53 0l-47.42 47.42a2.175 2.175 0 0 1-3.05-.01l-9.56-9.561 1.99-1.979a12.642 12.642 0 0 0 3.654-8.189 12.032 12.032 0 0 1 13.986 2.229 2.512 2.512 0 0 0 3.54 0l33.38-33.391a2.475 2.475 0 0 0 0-3.529 2.549 2.549 0 0 0-3.52-.01h-.01l-31.75 31.76a17.079 17.079 0 0 0-16.37-2.21 12.976 12.976 0 0 0-2.91-4.561L76.27 167.9a13.255 13.255 0 0 0-4.57-2.929 17.074 17.074 0 0 0-2.2-16.35l6.71-6.71a2.473 2.473 0 0 0 0-3.53 2.542 2.542 0 0 0-3.53 0l-8.35 8.349a2.5 2.5 0 0 0 0 3.531 12.036 12.036 0 0 1 2.231 13.959 12.356 12.356 0 0 0-8.211 3.68l-1.974 1.976-9.556-9.566a2.133 2.133 0 0 1 0-3.031l47.41-47.409a2.487 2.487 0 0 0 0-3.53 2.54 2.54 0 0 0-3.52-.01c-.01 0-.01 0-.01.01L71.437 125.6a55.959 55.959 0 0 1 53.854-53.864L106.33 90.7a2.517 2.517 0 0 0 0 3.54 2.557 2.557 0 0 0 3.54 0l47.41-47.421a2.172 2.172 0 0 1 3.039 0l9.561 9.561-1.97 1.99a12.7 12.7 0 0 0-3.661 8.187 12.04 12.04 0 0 1-13.989-2.227 2.544 2.544 0 0 0-3.531 0L113.34 97.72a2.5 2.5 0 0 0 0 3.53 2.553 2.553 0 0 0 3.53 0c.01 0 .01 0 .01-.01l31.74-31.74a17.071 17.071 0 0 0 16.359 2.21 13.135 13.135 0 0 0 2.931 4.56c4.516 4.515 9.446 9.45 10.1 10.108 1.738 1.739 3.308 3.567 6.286 4.632a17.1 17.1 0 0 0 2.2 16.37l-31.74 31.74a2.5 2.5 0 1 0 3.53 3.529l33.38-33.379a2.5 2.5 0 0 0 0-3.53 12.042 12.042 0 0 1-2.22-13.985 12.488 12.488 0 0 0 8.2-3.655l1.971-1.97 9.56 9.559a2.133 2.133 0 0 1 .003 3.031zm7.59-19.97a.01.01 0 0 1-.01.01 3.244 3.244 0 0 1-4.151-1.91l-1.529-4.22a2.5 2.5 0 0 0-4.12-.91l-12.851 12.849a7.725 7.725 0 0 1-10.793.042l12.742-12.741a2.5 2.5 0 1 0-3.536-3.535L179.78 81.077l-4.848-4.852 12.74-12.741a2.5 2.5 0 0 0-3.535-3.535L171.4 72.686a7.672 7.672 0 0 1 .039-10.776l20.071-20.07 24.03 24.04 3.18 8.7a3.257 3.257 0 0 1-1.95 4.17zm4.709-15.471a1.046 1.046 0 0 1-1.459.011l-27.3-27.311h-.01a1.045 1.045 0 0 1 .01-1.459l6.1-6.09 28.76 28.759z" fill="#000000" opacity="1" data-original="#000000" class=""></path><path d="m97.71 113.35-10.89 10.879a2.5 2.5 0 0 0 3.54 3.541l10.89-10.89a2.5 2.5 0 0 0 0-3.53 2.553 2.553 0 0 0-3.54 0zM79.75 131.3a2.5 2.5 0 1 0 3.54 0 2.572 2.572 0 0 0-3.54 0zM129.25 144.85a12.8 12.8 0 0 1-18.11-18.09 2.506 2.506 0 0 0-.02-3.531 2.566 2.566 0 0 0-3.54.021 17.8 17.8 0 0 0 25.19 25.15 2.508 2.508 0 0 0 .01-3.54 2.553 2.553 0 0 0-3.53-.01zM102.53 51.939a2.5 2.5 0 1 0 3.16 1.59 2.54 2.54 0 0 0-3.16-1.59zM155.34 196.62a2.5 2.5 0 0 0 1.889 4.63c.011 0 .011 0 .011-.01a2.491 2.491 0 0 0 1.36-3.261 2.537 2.537 0 0 0-3.26-1.359z" fill="#000000" opacity="1" data-original="#000000" class=""></path></g></svg>