<svg xmlns="http://www.w3.org/2000/svg" version="1.1" xmlns:xlink="http://www.w3.org/1999/xlink" width="512" height="512" x="0" y="0" viewBox="0 0 512 512" style="enable-background:new 0 0 512 512" xml:space="preserve" class=""><g><path fill="#d6ee79" fill-rule="evenodd" d="M256 512c140.997 0 256-115.003 256-256S396.997 0 256 0 0 115.003 0 256s115.003 256 256 256z" clip-rule="evenodd" opacity="1" data-original="#f34235" class=""></path><path fill="#000000" d="M366.313 171.409H145.687a4.539 4.539 0 0 0-3.291 1.415 4.541 4.541 0 0 0-1.246 3.369l11.593 223.69c.513 9.951 8.718 17.747 18.688 17.747h169.137c9.971 0 18.176-7.796 18.688-17.747l11.593-223.69a4.541 4.541 0 0 0-1.246-3.369 4.535 4.535 0 0 0-3.29-1.415zm-182.334 45.095c-.084-3.044 1.026-5.946 3.129-8.166s4.94-3.492 7.984-3.583c6.335-.13 11.593 4.842 11.775 11.126l4.213 157.024a11.324 11.324 0 0 1-3.129 8.173 11.439 11.439 0 0 1-7.997 3.577h-.337c-2.928 0-5.7-1.11-7.848-3.148a11.387 11.387 0 0 1-3.57-7.978zm60.577 156.537V215.997c0-6.316 5.135-11.451 11.444-11.451s11.444 5.135 11.444 11.451v157.044c0 6.322-5.135 11.464-11.444 11.464s-11.444-5.141-11.444-11.464zm79.245.474a11.393 11.393 0 0 1-3.57 7.991c-2.148 2.038-4.92 3.148-7.848 3.148h-.357a11.379 11.379 0 0 1-7.978-3.583 11.316 11.316 0 0 1-3.129-8.179l4.213-156.998c.182-6.29 5.401-11.295 11.697-11.139h.078c3.044.091 5.881 1.363 7.984 3.583s3.213 5.122 3.129 8.166zM389 136.414v12.048H123v-12.048c0-6.647 5.407-12.054 12.054-12.054h87.496a4.547 4.547 0 0 0 4.518-4.051C228.685 105.522 241.122 94.37 256 94.37s27.315 11.152 28.932 25.939a4.547 4.547 0 0 0 4.518 4.051h87.496c6.647 0 12.054 5.407 12.054 12.054z" opacity="1" data-original="#ffffff" class=""></path></g></svg>