<?xml version="1.0" encoding="UTF-8"?>
<svg xmlns="http://www.w3.org/2000/svg" id="Layer_1" data-name="Layer 1" viewBox="0 0 64 64" width="512" height="512"><path d="M15,21a1,1,0,0,1-1-1V1a1,1,0,0,1,2,0V20A1,1,0,0,1,15,21Z"/><path d="M11,21a1,1,0,0,1-1-1V1a1,1,0,1,1,2,0V20A1,1,0,0,1,11,21Z"/><path d="M15.792,56a1,1,0,0,1-1-.972l-.789-28a1,1,0,0,1,.637-.96A6.528,6.528,0,0,0,19,20.039l-1-18.985A1,1,0,0,1,18.951,0,.99.99,0,0,1,20,.948l1,19a8.47,8.47,0,0,1-4.98,7.7l.77,27.325A1,1,0,0,1,15.821,56Z"/><path d="M13,64a4.066,4.066,0,0,1-2.9-1.22A3.849,3.849,0,0,1,9,59.973l.979-32.288a8.46,8.46,0,0,1-4.978-7.723l1-19.014a1,1,0,1,1,2,.106l-1,19a6.337,6.337,0,0,0,4.3,5.993,1,1,0,0,1,.7.985l-1,33a1.861,1.861,0,0,0,.534,1.355,2.169,2.169,0,0,0,3-.045,1.377,1.377,0,0,0,.4-1.025l-.066-2.287A1,1,0,0,1,15.849,57a.962.962,0,0,1,1.027.971l.063,2.239A3.315,3.315,0,0,1,16,62.7,4.1,4.1,0,0,1,13,64Z"/><path d="M34,64a4.186,4.186,0,0,1-4-3.912.962.962,0,0,1,0-.12l.742-23A.989.989,0,0,1,31.776,36a1,1,0,0,1,.968,1.032L32,59.966A2.2,2.2,0,0,0,34,62a2.057,2.057,0,0,0,1.467-.615A1.858,1.858,0,0,0,36,60.027l-.161-5a1,1,0,0,1,2-.064l.161,5a3.848,3.848,0,0,1-1.1,2.812A4.066,4.066,0,0,1,34,64Z"/><path d="M36.743,53a1,1,0,0,1-1-.968l-.742-23a1,1,0,0,1,.717-.991C39.87,26.815,43,21.209,43,15c0-7.169-4.037-13-9-13s-9,5.831-9,13c0,6,3.149,11.616,7.325,13.054a1,1,0,0,1,.674.978l-.162,5a1,1,0,0,1-2-.065l.139-4.3C26.386,27.632,23,21.494,23,15,23,6.73,27.937,0,34,0S45,6.73,45,15c0,6.82-3.312,12.842-7.976,14.7l.718,22.265A1,1,0,0,1,36.776,53Z"/><rect x="35.792" y="51.999" width="2" height="3.002" transform="translate(-1.704 1.213) rotate(-1.846)"/><path d="M40,16a1,1,0,0,1-1-1c0-5.576-2.912-9-5-9a1,1,0,0,1,0-2c3.38,0,7,4.42,7,11A1,1,0,0,1,40,16Z"/><path d="M55,64a4,4,0,0,1-4-4l.947-18H48a1,1,0,0,1-1-1V29c0-7.895,1.379-14.76,4.1-20.4a1,1,0,1,1,1.8.868C50.313,14.836,49,21.409,49,29V40h4a1,1,0,0,1,1,1.053l-1,19A2,2,0,0,0,57,60V3.288a22.49,22.49,0,0,0-2.478,3.248,1,1,0,0,1-1.689-1.071A19.4,19.4,0,0,1,57.426.182,1,1,0,0,1,59,1V60A4,4,0,0,1,55,64Z"/></svg>
