<svg id="Layer_1" enable-background="new 0 0 64 64" height="512" viewBox="0 0 64 64" width="512" xmlns="http://www.w3.org/2000/svg"><g><circle cx="32" cy="32" fill="#58717f" r="32"/><g><path d="m6.7 17.6h50.6v28.8h-50.6z" fill="#75ccef"/><path d="m54.8 24.4v15.2c-2.3 0-4.3 1.9-4.3 4.3h-37c0-2.3-1.9-4.3-4.3-4.3v-15.2c2.3 0 4.3-1.9 4.3-4.3h37.1c-.1 2.4 1.8 4.3 4.2 4.3z" fill="#ebebeb"/><g><ellipse cx="32" cy="32" fill="#75ccef" rx="9.6" ry="9.6" transform="matrix(.193 -.981 .981 .193 -5.582 57.212)"/><g><path d="m35.7 34.1c0 .5-.1.9-.3 1.3s-.4.7-.7 1-.7.5-1.1.7-.9.3-1.5.3l-.2 1.8v.1s-.1.1-.1.1c-.1 0-.1 0-.2.1-.1 0-.2 0-.3 0-.2 0-.3 0-.4 0s-.2 0-.3-.1c-.1 0-.1-.1-.1-.1 0-.1 0-.1 0-.2l.2-1.7c-.2 0-.5-.1-.7-.1-.2-.1-.4-.1-.6-.2s-.3-.1-.5-.2c-.1-.1-.2-.1-.3-.2s-.1-.2-.1-.3 0-.3 0-.6c0-.2 0-.3 0-.5 0-.1 0-.2.1-.3 0-.1.1-.1.1-.1h.1c.1 0 .2 0 .3.1s.3.2.5.3.5.2.8.3.7.1 1.1.1c.7 0 1.1-.1 1.5-.4.3-.2.5-.6.5-1 0-.3-.1-.5-.2-.7s-.3-.3-.6-.5c-.2-.1-.5-.2-.8-.4-.3-.1-.6-.2-.9-.3s-.6-.3-.9-.4c-.3-.2-.5-.4-.8-.6-.2-.2-.4-.5-.6-.8-.1-.3-.2-.7-.2-1.2 0-.4.1-.8.2-1.2.1-.3.3-.6.6-.9s.6-.5 1-.6c.4-.2.8-.3 1.3-.3l.2-1.7v-.1s.1-.1.1-.1c.1 0 .1 0 .2-.1h.4.4c.1 0 .2 0 .3.1.1 0 .1.1.1.1v.2l-.2 1.6c.2 0 .3.1.5.1s.3.1.5.1c.2.1.3.1.4.2s.2.1.3.2c0 0 .1.1.1.1s0 .1.1.2v.3.3.4.3c0 .1 0 .1-.1.1h-.1c-.1 0-.2 0-.3-.1s-.3-.2-.5-.2c-.2-.1-.4-.2-.7-.2-.3-.1-.6-.1-.9-.1s-.5 0-.8.1c-.2.1-.4.1-.5.2s-.2.2-.3.4c-.1.1-.1.3-.1.5 0 .3.1.5.2.7s.3.3.6.5c.2.1.5.2.8.4.3.1.6.2.9.3s.6.3.9.4c.3.2.6.3.8.6.2.2.4.5.6.8.1.2.2.6.2 1.1z" fill="#fff"/></g></g><g fill="#75ccef"><g><path d="m50.4 25c0 .7-.6 1.3-1.3 1.3s-1.3-.6-1.3-1.3.6-1.3 1.3-1.3 1.3.6 1.3 1.3z"/><path d="m50.4 39c0 .7-.6 1.3-1.3 1.3s-1.3-.6-1.3-1.3.6-1.3 1.3-1.3 1.3.6 1.3 1.3z"/></g><g><circle cx="14.9" cy="25" r="1.3"/><path d="m16.1 39c0 .7-.6 1.3-1.3 1.3s-1.3-.6-1.3-1.3.6-1.3 1.3-1.3c.8 0 1.3.6 1.3 1.3z"/></g></g></g></g></svg>