<svg id="Layer_1" enable-background="new 0 0 64 64" height="512" viewBox="0 0 64 64" width="512" xmlns="http://www.w3.org/2000/svg"><g><circle cx="32" cy="32" fill="#fcd66f" r="32"/><g><g><g><ellipse cx="32" cy="32" fill="#84d6f7" rx="8.5" ry="26.7"/><path d="m23.5 32c0-14.7 3.8-26.7 8.5-26.7v53.4c-4.7 0-8.5-12-8.5-26.7z" fill="#5dafd8"/></g><ellipse cx="32" cy="32" fill="#627c89" rx="6.7" ry="11.5"/></g><path d="m17.9 44.6-4 4c-.4.4-.6 1-.3 1.2l.7.7c.2.2.8.1 1.2-.3l4-4 .2-.8 25.7-25.7.8-.2 4-4c.4-.4.6-1 .3-1.2l-.7-.7c-.2-.2-.8-.1-1.2.3l-4 4-.2.8-25.7 25.7z" fill="#445c6c"/></g></g></svg>