<svg id="Layer_1" enable-background="new 0 0 512 512" height="512" viewBox="0 0 512 512" width="512" xmlns="http://www.w3.org/2000/svg"><path clip-rule="evenodd" d="m256 512c140.997 0 256-115.003 256-256s-115.003-256-256-256-256 115.003-256 256 115.003 256 256 256z" fill="#f34235" fill-rule="evenodd"/><path d="m366.313 171.409h-220.626c-1.246 0-2.434.513-3.291 1.415-.863.909-1.311 2.123-1.246 3.369l11.593 223.69c.513 9.951 8.718 17.747 18.688 17.747h169.137c9.971 0 18.176-7.796 18.688-17.747l11.593-223.69c.065-1.246-.383-2.46-1.246-3.369-.856-.902-2.044-1.415-3.29-1.415zm-182.334 45.095c-.084-3.044 1.026-5.946 3.129-8.166s4.94-3.492 7.984-3.583c6.335-.13 11.593 4.842 11.775 11.126l4.213 157.024c.091 3.038-1.019 5.946-3.129 8.173-2.103 2.214-4.946 3.486-7.997 3.577h-.337c-2.928 0-5.7-1.11-7.848-3.148-2.213-2.103-3.486-4.94-3.57-7.978zm60.577 156.537v-157.044c0-6.316 5.135-11.451 11.444-11.451s11.444 5.135 11.444 11.451v157.044c0 6.322-5.135 11.464-11.444 11.464s-11.444-5.141-11.444-11.464zm79.245.474c-.084 3.051-1.357 5.888-3.57 7.991-2.148 2.038-4.92 3.148-7.848 3.148h-.357c-3.044-.091-5.881-1.363-7.978-3.583-2.11-2.226-3.22-5.128-3.129-8.179l4.213-156.998c.182-6.29 5.401-11.295 11.697-11.139h.078c3.044.091 5.881 1.363 7.984 3.583s3.213 5.122 3.129 8.166zm65.199-237.101v12.048h-266v-12.048c0-6.647 5.407-12.054 12.054-12.054h87.496c2.317 0 4.265-1.746 4.518-4.051 1.617-14.787 14.054-25.939 28.932-25.939s27.315 11.152 28.932 25.939c.253 2.304 2.2 4.051 4.518 4.051h87.496c6.647 0 12.054 5.407 12.054 12.054z" fill="#fff"/></svg>