<svg xmlns="http://www.w3.org/2000/svg" version="1.1" xmlns:xlink="http://www.w3.org/1999/xlink" width="512" height="512" x="0" y="0" viewBox="0 0 64 64" style="enable-background:new 0 0 512 512" xml:space="preserve" class=""><g><circle cx="32" cy="32" r="32" fill="#e0e0e0" opacity="1" data-original="#fce0b9" class=""></circle><path fill="#f7747e" d="M55 37.5v1.4c0 .3 0 .6-.1.9 0 .1-.1.2-.1.3-.1.2-.2.4-.4.6-.6.8-1.5 1.3-2.5 1.3H12.2c-1 0-2-.5-2.5-1.3-.1-.2-.3-.4-.4-.6 0-.1-.1-.2-.1-.3-.1-.3-.2-.6-.2-.9v-1.4c0-.6.2-1.2.5-1.7.6-.9 1.5-1.4 2.6-1.4h39.6c1.1 0 2.1.6 2.6 1.4.5.5.7 1 .7 1.7z" opacity="1" data-original="#f7747e" class=""></path><path fill="#e6ac43" d="M9.8 40.7h44.3c.4 0 .6.3.6.6v3.9c0 1.4-1.1 2.6-2.6 2.6H11.8c-1.4 0-2.6-1.1-2.6-2.6v-3.9c0-.3.3-.6.6-.6z" opacity="1" data-original="#e6ac43" class=""></path><path fill="#f7cc63" d="M9.9 35.8c-.4 0-.7-.3-.6-.7.3-10.5 10.4-18.9 22.7-18.9s22.4 8.4 22.8 18.9c0 .4-.3.7-.6.7z" opacity="1" data-original="#f7cc63" class=""></path><g fill="#e6ac43"><path d="M23.2 23.2c0 .8-.4 1.5-.9 1.5s-.9-.7-.9-1.5.4-1.5.9-1.5.9.6.9 1.5zM34.7 29.4c0 .8-.4 1.5-.9 1.5s-.9-.7-.9-1.5.4-1.5.9-1.5c.5-.1.9.6.9 1.5zM25.7 27.5c0 .8-.4 1.5-.9 1.5s-.9-.7-.9-1.5.4-1.5.9-1.5.9.7.9 1.5zM34.7 24.7c0 .8-.4 1.5-.9 1.5s-.9-.7-.9-1.5.4-1.5.9-1.5.9.7.9 1.5zM40.4 33c0 .8-.4 1.5-.9 1.5s-.9-.7-.9-1.5.4-1.5.9-1.5.9.7.9 1.5zM24.1 33c0 .8-.4 1.5-.9 1.5s-.9-.7-.9-1.5.4-1.5.9-1.5.9.7.9 1.5zM16.8 29c0 .8-.4 1.5-.9 1.5s-.9-.6-.9-1.5c0-.8.4-1.5.9-1.5s.9.7.9 1.5zM29 21.6c0 .8-.4 1.5-.9 1.5s-.9-.7-.9-1.5.4-1.5.9-1.5.9.7.9 1.5zM40.4 21.6c0 .8-.4 1.5-.9 1.5s-.9-.7-.9-1.5.4-1.5.9-1.5.9.7.9 1.5zM46.7 27.5c0 .8-.4 1.5-.9 1.5s-.9-.7-.9-1.5.4-1.5.9-1.5.9.7.9 1.5z" fill="#e6ac43" opacity="1" data-original="#e6ac43" class=""></path></g><path fill="#e0e0e0" d="M54.8 39.8c0 .1-.1.2-.1.3h-.5c-1.2 0-1.7-.3-2.3-.7-.6-.3-1.1-.6-2.1-.6-1.1 0-1.6.3-2.1.6-.6.3-1.1.7-2.3.7s-1.7-.3-2.3-.7c-.6-.3-1.1-.6-2.1-.6-1.1 0-1.6.3-2.1.6-.6.3-1.1.7-2.3.7s-1.7-.3-2.3-.7c-.6-.3-1.1-.6-2.1-.6-1.1 0-1.6.3-2.1.6-.6.3-1.1.7-2.3.7s-1.7-.3-2.3-.7c-.6-.3-1.1-.6-2.1-.6-1.1 0-1.6.3-2.1.6-.6.3-1.1.7-2.3.7s-1.7-.3-2.3-.7c-.6-.3-1.1-.6-2.1-.6-1.1 0-1.6.3-2.1.6-.6.3-1.1.7-2.3.7h-.5c0-.1-.1-.2-.1-.3h.6c1.1 0 1.6-.3 2.1-.6.6-.3 1.1-.7 2.3-.7s1.7.3 2.3.7c.6.3 1.1.6 2.1.6 1.1 0 1.6-.3 2.1-.6.6-.3 1.1-.7 2.3-.7s1.7.3 2.3.7c.6.3 1.1.6 2.1.6 1.1 0 1.6-.3 2.1-.6.6-.3 1.1-.7 2.3-.7s1.7.3 2.3.7c.5.3 1.1.6 2.1.6 1.1 0 1.6-.3 2.1-.6.6-.3 1.1-.7 2.3-.7s1.7.3 2.3.7c.6.3 1.1.6 2.1.6 1.1 0 1.6-.3 2.1-.6.6-.3 1.1-.7 2.3-.7s1.7.3 2.3.7c.6.3 1.1.6 2.1.6zM55 37.5v.3c-.2 0-.5.1-.8.1-1.2 0-1.7-.3-2.3-.7-.6-.3-1.1-.6-2.1-.6-1.1 0-1.6.3-2.1.6-.6.3-1.1.7-2.3.7s-1.7-.3-2.3-.7c-.6-.3-1.1-.6-2.1-.6-1.1 0-1.6.3-2.1.6-.6.3-1.1.7-2.3.7s-1.7-.3-2.3-.7c-.6-.3-1.1-.6-2.1-.6-1.1 0-1.6.3-2.1.6-.6.3-1.1.7-2.3.7s-1.7-.3-2.3-.7c-.6-.3-1.1-.6-2.1-.6-1.1 0-1.6.3-2.1.6-.6.3-1.1.7-2.3.7s-1.7-.3-2.3-.7c-.6-.3-1.1-.6-2.1-.6-1.1 0-1.6.3-2.1.6-.6.3-1.1.7-2.3.7-.3 0-.5 0-.7-.1v-.3c.2 0 .5.1.7.1 1.1 0 1.6-.3 2.1-.6.6-.3 1.1-.7 2.3-.7s1.7.3 2.3.7c.6.3 1.1.6 2.1.6 1.1 0 1.6-.3 2.1-.6.6-.3 1.1-.7 2.3-.7s1.7.3 2.3.7c.6.3 1.1.6 2.1.6 1.1 0 1.6-.3 2.1-.6.6-.3 1.1-.7 2.3-.7s1.7.3 2.3.7c.5.3 1.1.6 2.1.6 1.1 0 1.6-.3 2.1-.6.6-.3 1.1-.7 2.3-.7s1.7.3 2.3.7c.6.3 1.1.6 2.1.6 1.1 0 1.6-.3 2.1-.6.6-.3 1.1-.7 2.3-.7s1.7.3 2.3.7c.6.3 1.1.6 2.1.6.3-.1.5-.1.8-.1z" opacity="1" data-original="#ebebeb" class=""></path></g></svg>