<svg id="Layer_1" enable-background="new 0 0 64 64" height="512" viewBox="0 0 64 64" width="512" xmlns="http://www.w3.org/2000/svg"><g><path d="m64 32c0 17.7-14.3 32-32 32s-32-14.3-32-32c0-5.2 1.2-10.1 3.4-14.4.9-1.9 2.1-3.6 3.4-5.3 5.8-7.5 15-12.3 25.2-12.3 17.7 0 32 14.3 32 32z" fill="#9da6b1"/><g><path d="m53.2 12.3v5.3h-49.8c.9-1.9 2.1-3.6 3.4-5.3z" fill="#ecb285"/><g><g><g><path d="m16.7 15.6h3.3v8h-3.3z" fill="#ecb285"/><path d="m16.7 17.6h3.3v1.2h-3.3z" fill="#ce9278"/></g><g><path d="m44.3 15.6h3.3v8h-3.3z" fill="#ecb285"/><path d="m44.3 17.6h3.3v1.2h-3.3z" fill="#ce9278"/></g></g><g><g><path d="m51.2 51.7h-38.2c-1.1 0-2-.9-2-2v-25.3c0-1.1.9-2 2-2h38.3c1.1 0 2 .9 2 2v25.3c-.1 1.1-1 2-2.1 2z" fill="#fce0b9"/><path d="m20.1 18.6h24v37h-24z" fill="#ce9278" transform="matrix(0 1 -1 0 69.171 4.953)"/></g><g fill="#fce0b9"><g><path d="m23.1 39.3s-.1-.1-.1-.1c-.1 0-.1 0-.2 0s-.2 0-.3 0-.3 0-.3 0c-.1 0-.2 0-.2 0s-.1 0-.1.1v.1 2.5h-2.6v-2.5-.1s-.1-.1-.1-.1c-.1 0-.1 0-.2 0s-.2 0-.3 0-.2 0-.3 0-.2 0-.2 0c-.1 0-.1 0-.1.1v.1 6.5.1s.1.1.1.1h.2.3.3.2c.1 0 .1 0 .1-.1v-.1-2.8h2.6v2.8.1s.1.1.1.1h.2.3.3.2c.1 0 .1 0 .1-.1v-.1-6.6c.1.1.1 0 0 0z"/><path d="m30.7 41c-.1-.4-.3-.8-.6-1.1s-.6-.5-1-.6-.9-.2-1.4-.2c-.6 0-1 .1-1.4.3s-.8.4-1 .7c-.3.3-.5.7-.6 1.1s-.2 1-.2 1.5c0 .6.1 1.1.2 1.6.1.4.3.8.6 1.1s.6.5 1 .6.9.2 1.4.2 1-.1 1.4-.2c.4-.2.8-.4 1-.7.3-.3.5-.7.6-1.2s.2-1 .2-1.5c0-.6 0-1.1-.2-1.6zm-1.3 2.6c-.1.3-.2.6-.3.8s-.3.4-.6.5c-.2.1-.5.2-.9.2-.3 0-.6-.1-.9-.2-.2-.1-.4-.3-.5-.5s-.2-.5-.3-.8-.1-.6-.1-1c0-.3 0-.6.1-.9s.2-.5.3-.8c.1-.2.3-.4.6-.5.2-.1.5-.2.9-.2.3 0 .6.1.9.2.2.1.4.3.5.5s.2.5.3.8.1.6.1 1c-.1.3-.1.6-.1.9z"/><path d="m36.5 39.5c0-.1 0-.1 0-.2 0 0 0-.1-.1-.1h-.1-4.9-.1s0 .1-.1.1v.2.3.3.2s0 .1.1.1h.1 1.7v5.6.1s.1.1.1.1h.2.3.3.2c.1 0 .1 0 .1-.1v-.1-5.6h1.7.1s0-.1.1-.1c0 0 0-.1 0-.2s0-.2 0-.3c.3-.1.3-.2.3-.3z"/><path d="m41.4 45.3c0-.1 0-.1 0-.2 0 0 0-.1-.1-.1h-.1-2.5v-2h2.1.1s0 0 .1-.1c0 0 0-.1 0-.2s0-.2 0-.3 0-.2 0-.3 0-.1 0-.2c0 0 0-.1-.1-.1h-.1-2.1v-1.7h2.5.1s0 0 .1-.1c0 0 0-.1 0-.2s0-.2 0-.3 0-.2 0-.3 0-.1 0-.2c0 0 0-.1-.1-.1h-.1-3.5c-.1 0-.2 0-.3.1s-.1.2-.1.3v6c0 .2 0 .3.1.3.1.1.2.1.3.1h3.5.1s0 0 .1-.1c0 0 0-.1 0-.2s0-.2 0-.3c0 .4 0 .3 0 .2z"/><path d="m46.4 45.3c0-.1 0-.1 0-.2 0 0 0-.1-.1-.1h-.1-2.2v-5.6-.1s-.1-.1-.1-.1c-.1 0-.1 0-.2 0s-.2 0-.3 0-.3 0-.3 0c-.1 0-.2 0-.2 0-.1 0-.1 0-.1.1v.1 6.3c0 .2 0 .3.1.3.1.1.2.1.3.1h3.2.1s0-.1.1-.1c0 0 0-.1 0-.2s0-.2 0-.3c-.2-.1-.2-.2-.2-.2z"/></g><g><path d="m18.1 27.9.6 2h2.2l-1.8 1.3.7 2-1.7-1.3-1.7 1.3.6-2-1.7-1.3h2.1z"/><path d="m25.1 27.9.7 2h2.1l-1.7 1.3.6 2-1.7-1.3-1.7 1.3.6-2-1.7-1.3h2.1z"/><path d="m32.1 27.9.7 2h2.1l-1.7 1.3.6 2-1.7-1.3-1.7 1.3.6-2-1.7-1.3h2.2z"/><path d="m39.1 27.9.7 2h2.1l-1.7 1.3.6 2-1.7-1.3-1.7 1.3.7-2-1.8-1.3h2.2z"/><path d="m46.1 27.9.7 2h2.1l-1.7 1.3.7 2-1.8-1.3-1.7 1.3.7-2-1.7-1.3h2.1z"/></g></g></g></g></g></g></svg>