<?xml version="1.0" encoding="UTF-8" standalone="no"?>
<!-- Created with Inkscape (http://www.inkscape.org/) -->

<svg
   version="1.1"
   id="svg4071"
   xml:space="preserve"
   width="682.66669"
   height="682.66669"
   viewBox="0 0 682.66669 682.66669"
   xmlns="http://www.w3.org/2000/svg"
   xmlns:svg="http://www.w3.org/2000/svg"><defs
     id="defs4075"><clipPath
       clipPathUnits="userSpaceOnUse"
       id="clipPath4085"><path
         d="M 0,512 H 512 V 0 H 0 Z"
         id="path4083" /></clipPath></defs><g
     id="g4077"
     transform="matrix(1.3333333,0,0,-1.3333333,0,682.66667)"><g
       id="g4079"><g
         id="g4081"
         clip-path="url(#clipPath4085)"><g
           id="g4087"
           transform="translate(185.9432,248.5586)"><path
             d="M 0,0 C 0,23.915 -19.352,43.267 -43.267,43.267"
             style="fill:none;stroke:#000000;stroke-width:20;stroke-linecap:round;stroke-linejoin:round;stroke-miterlimit:10;stroke-dasharray:none;stroke-opacity:1"
             id="path4089" /></g><g
           id="g4091"
           transform="translate(442.0568,248.5586)"><path
             d="M 0,0 C 0,23.915 19.352,43.267 43.267,43.267"
             style="fill:none;stroke:#000000;stroke-width:20;stroke-linecap:round;stroke-linejoin:round;stroke-miterlimit:10;stroke-dasharray:none;stroke-opacity:1"
             id="path4093" /></g><g
           id="g4095"
           transform="translate(442.0568,431.3239)"><path
             d="M 0,0 C 0,-23.915 19.352,-43.267 43.267,-43.267"
             style="fill:none;stroke:#000000;stroke-width:20;stroke-linecap:round;stroke-linejoin:round;stroke-miterlimit:10;stroke-dasharray:none;stroke-opacity:1"
             id="path4097" /></g><g
           id="g4099"
           transform="translate(314,247.8826)"><path
             d="M 0,0 V 0"
             style="fill:none;stroke:#000000;stroke-width:20;stroke-linecap:round;stroke-linejoin:round;stroke-miterlimit:10;stroke-dasharray:none;stroke-opacity:1"
             id="path4101" /></g><g
           id="g4103"
           transform="translate(314,432)"><path
             d="M 0,0 H 155.775 C 164.736,0 172,-7.264 172,-16.225 v -151.667 c 0,-8.961 -7.264,-16.225 -16.225,-16.225 H 45"
             style="fill:none;stroke:#000000;stroke-width:20;stroke-linecap:round;stroke-linejoin:round;stroke-miterlimit:10;stroke-dasharray:none;stroke-opacity:1"
             id="path4105" /></g><g
           id="g4107"
           transform="translate(268.9998,247.8826)"><path
             d="M 0,0 H -110.775 C -119.735,0 -127,7.264 -127,16.225 v 86.834"
             style="fill:none;stroke:#000000;stroke-width:20;stroke-linecap:round;stroke-linejoin:round;stroke-miterlimit:10;stroke-dasharray:none;stroke-opacity:1"
             id="path4109" /></g><g
           id="g4111"
           transform="translate(270.9493,362.618)"><path
             d="m 0,0 c 8.165,15.428 24.38,25.94 43.051,25.94 26.882,0 48.675,-21.793 48.675,-48.675 0,-26.883 -21.793,-48.676 -48.675,-48.676 -20.618,0 -38.242,12.819 -45.337,30.922"
             style="fill:none;stroke:#000000;stroke-width:20;stroke-linecap:round;stroke-linejoin:round;stroke-miterlimit:10;stroke-dasharray:none;stroke-opacity:1"
             id="path4113" /></g><g
           id="g4115"
           transform="translate(417.976,339.8826)"><path
             d="M 0,0 V 0"
             style="fill:none;stroke:#000000;stroke-width:20;stroke-linecap:round;stroke-linejoin:round;stroke-miterlimit:10;stroke-dasharray:none;stroke-opacity:1"
             id="path4117" /></g><g
           id="g4119"
           transform="translate(98,486)"><path
             d="m 0,0 h 145.006 c 14.24,0 28.08,-4.716 39.357,-13.412 L 237,-54 H 128.259 C 116.794,-54 107.5,-63.294 107.5,-74.759 v 0 c 0,-7.553 4.103,-14.51 10.712,-18.165 l 51.448,-28.454 c 10.667,-5.899 15.409,-18.719 11.149,-30.14 v 0 c -4.141,-11.102 -15.604,-17.677 -27.277,-15.648 l -36.123,6.281 C 83.767,-155.035 51.855,-141.751 24,-122 v 0 H 0"
             style="fill:none;stroke:#000000;stroke-width:20;stroke-linecap:round;stroke-linejoin:round;stroke-miterlimit:10;stroke-dasharray:none;stroke-opacity:1"
             id="path4121" /></g><path
           d="M 98,342 H 10 v 160 h 88 z"
           style="fill:none;stroke:#000000;stroke-width:20;stroke-linecap:round;stroke-linejoin:round;stroke-miterlimit:10;stroke-dasharray:none;stroke-opacity:1"
           id="path4123" /><g
           id="g4125"
           transform="translate(413.9241,22)"><path
             d="m 0,0 h -195.91 c -34.648,0 -67.877,13.764 -92.377,38.264 l -54.327,54.327 c -9.725,9.725 -9.688,25.505 0.083,35.185 v 0 c 9.707,9.617 25.362,9.579 35.023,-0.084 l 48.612,-48.626 c 16.292,-16.296 38.39,-25.452 61.433,-25.452 h 54.021"
             style="fill:none;stroke:#000000;stroke-width:20;stroke-linecap:round;stroke-linejoin:round;stroke-miterlimit:10;stroke-dasharray:none;stroke-opacity:1"
             id="path4127" /></g><g
           id="g4129"
           transform="translate(329.5181,75.6143)"><path
             d="m 0,0 h -108.892 c -13.671,0 -24.754,11.083 -24.754,24.755 v 0 c 0,13.671 11.083,24.754 24.754,24.754 h 63.138 l 13.06,15.503 c 16.251,19.291 40.189,30.425 65.413,30.425 v 0 c 18.045,0 35.628,-5.707 50.233,-16.306 l 1.454,-1.055"
             style="fill:none;stroke:#000000;stroke-width:20;stroke-linecap:round;stroke-linejoin:round;stroke-miterlimit:10;stroke-dasharray:none;stroke-opacity:1"
             id="path4131" /></g><g
           id="g4133"
           transform="translate(502,10)"><path
             d="M 0,0 H -88 V 160 H 0 Z"
             style="fill:none;stroke:#000000;stroke-width:20;stroke-linecap:round;stroke-linejoin:round;stroke-miterlimit:10;stroke-dasharray:none;stroke-opacity:1"
             id="path4135" /></g></g></g></g></svg>
