<svg xmlns="http://www.w3.org/2000/svg" version="1.1" xmlns:xlink="http://www.w3.org/1999/xlink" width="512" height="512" x="0" y="0" viewBox="0 0 24 24" style="enable-background:new 0 0 512 512" xml:space="preserve" class=""><g><path fill="#3deb97" d="M7 13v8h6l3-1 1-2v-5l-2-1-1.5 1-1.5-1-1.5 1L9 12z" opacity="0" data-original="#3deb97" class=""></path><path fill="#37a771" d="M7 16H4v2a3 3 0 0 0 3 3h5a3 3 0 0 1-3-3v-2z" opacity="0" data-original="#37a771" class=""></path><path fill="#3deb97" d="m10.5 11-1.625-1-1.513-4.665A4 4 0 0 1 11 3h7.5A1.5 1.5 0 0 0 17 4.5V11l-1.875-1-1.625 1-1.5-1z" opacity="0" data-original="#3deb97" class=""></path><path fill="#1a1a1a" fill-rule="evenodd" d="M8.64 11.559a.5.5 0 0 1 .497.015l1.352.832 1.234-.822a.5.5 0 0 1 .554 0l1.234.822 1.352-.832a.5.5 0 0 1 .497-.015l1.875 1A.5.5 0 0 1 17.5 13v.5h-1v-.2l-1.357-.724-1.381.85a.5.5 0 0 1-.54-.01L12 12.601l-1.223.815a.5.5 0 0 1-.539.01l-1.38-.85L7.5 13.3v2.2H9a.5.5 0 0 1 .5.5v2a2.5 2.5 0 0 0 2.5 2.5h1a3.5 3.5 0 0 0 3.195-2.07l.913.41A4.5 4.5 0 0 1 13 21.5H7A3.5 3.5 0 0 1 3.5 18v-2a.5.5 0 0 1 .5-.5h2.5V13a.5.5 0 0 1 .265-.441zm.91 8.941A3.49 3.49 0 0 1 8.5 18v-1.5h-4V18A2.5 2.5 0 0 0 7 20.5z" clip-rule="evenodd" opacity="1" data-original="#1e3263" class=""></path><path fill="#eb5656" d="M21 16a3 3 0 1 1-6 0 3 3 0 0 1 6 0z" opacity="0" data-original="#eb5656" class=""></path><path fill="#5680eb" d="M9 8a3 3 0 1 1-6 0 3 3 0 0 1 6 0z" opacity="0" data-original="#5680eb" class=""></path><path fill="#37a771" d="M20 8h-3V4.5a1.5 1.5 0 0 1 3 0z" opacity="0" data-original="#37a771" class=""></path><path fill="#1a1a1a" d="M20.397 17.946C19.85 17.219 18.98 16.75 18 16.75s-1.85.47-2.397 1.196C15.902 18.297 16.8 19 18 19c1.2 0 2.098-.703 2.397-1.054z" opacity="1" data-original="#ffffff" class=""></path><path fill="#1a1a1a" fill-rule="evenodd" d="M11 3.5a3.5 3.5 0 0 0-3.183 2.043l-.91-.417A4.5 4.5 0 0 1 11 2.5h7.5a2 2 0 0 1 2 2V8a.5.5 0 0 1-.5.5h-2.5V11a.5.5 0 0 1-.735.441l-1.622-.865-1.381.85a.5.5 0 0 1-.54-.01L12 10.601l-1.223.815a.5.5 0 0 1-.54.01l-2.05-1.262.524-.852 1.778 1.094 1.234-.822a.5.5 0 0 1 .554 0l1.234.822 1.352-.832a.5.5 0 0 1 .497-.015l1.14.608V4.5c0-.364.097-.706.268-1zm7.5 0a1 1 0 0 0-1 1v3h2v-3a1 1 0 0 0-1-1z" clip-rule="evenodd" opacity="1" data-original="#1e3263" class=""></path><path fill="#1a1a1a" d="M8.397 9.946C7.85 9.22 6.98 8.75 6 8.75s-1.85.47-2.397 1.196C3.902 10.297 4.8 11 6 11s2.098-.703 2.397-1.054z" opacity="1" data-original="#ffffff" class=""></path><path fill="#1a1a1a" fill-rule="evenodd" d="M18 13.5a2.5 2.5 0 1 0 0 5 2.5 2.5 0 0 0 0-5zM14.5 16a3.5 3.5 0 1 1 7 0 3.5 3.5 0 0 1-7 0z" clip-rule="evenodd" opacity="1" data-original="#1e3263" class=""></path><path fill="#1a1a1a" d="M19 15a1 1 0 1 1-2 0 1 1 0 0 1 2 0z" opacity="1" data-original="#ffffff" class=""></path><path fill="#1a1a1a" fill-rule="evenodd" d="M6 5.5a2.5 2.5 0 1 0 0 5 2.5 2.5 0 0 0 0-5zM2.5 8a3.5 3.5 0 1 1 7 0 3.5 3.5 0 0 1-7 0z" clip-rule="evenodd" opacity="1" data-original="#1e3263" class=""></path><path fill="#1a1a1a" d="M7 7a1 1 0 1 1-2 0 1 1 0 0 1 2 0z" opacity="1" data-original="#ffffff" class=""></path><g fill="#1e3263" fill-rule="evenodd" clip-rule="evenodd"><path d="M10 15.75c0-.69.56-1.25 1.25-1.25h2.25a.5.5 0 0 1 0 1h-2.25a.25.25 0 1 0 0 .5h1.5a1.25 1.25 0 1 1 0 2.5H10.5a.5.5 0 0 1 0-1h2.25a.25.25 0 1 0 0-.5h-1.5c-.69 0-1.25-.56-1.25-1.25z" fill="#1a1a1a" opacity="1" data-original="#1e3263" class=""></path><path d="M12 14a.5.5 0 0 1 .5.5v4a.5.5 0 0 1-1 0v-4a.5.5 0 0 1 .5-.5zM10 5.75c0-.69.56-1.25 1.25-1.25h2.25a.5.5 0 0 1 0 1h-2.25a.25.25 0 1 0 0 .5h1.5a1.25 1.25 0 1 1 0 2.5H10.5a.5.5 0 0 1 0-1h2.25a.25.25 0 1 0 0-.5h-1.5C10.56 7 10 6.44 10 5.75z" fill="#1a1a1a" opacity="1" data-original="#1e3263" class=""></path><path d="M12 4a.5.5 0 0 1 .5.5v4a.5.5 0 0 1-1 0v-4A.5.5 0 0 1 12 4z" fill="#1a1a1a" opacity="1" data-original="#1e3263" class=""></path></g></g></svg>