<svg id="Layer_1" enable-background="new 0 0 64 64" height="512" viewBox="0 0 64 64" width="512" xmlns="http://www.w3.org/2000/svg"><g><circle cx="32" cy="32" fill="#ebebeb" r="32"/><g><g fill="#58717f"><path d="m20 52.8h-2.6c-.6 0-1.1-.5-1.1-1.1v-5.8h4.9v5.8c0 .6-.6 1.1-1.2 1.1z"/><path d="m46.6 52.8h-2.6c-.6 0-1.1-.5-1.1-1.1v-5.8h4.9v5.8c0 .6-.5 1.1-1.2 1.1z"/></g><g><path d="m50.5 47.5h-37c-.6 0-1.1-.5-1.1-1.1v-32.6c0-.6.4-1.1 1-1.1 12.6-1.9 25-1.9 37.3 0 .6.1 1 .6 1 1.1v32.6c-.1.6-.6 1.1-1.2 1.1z" fill="#fcd66f"/><path d="m15.4 32.6v-12.1c0-.6.5-1.1 1.1-1.1h30.9c.6 0 1.1.5 1.1 1.1v12.1c0 .6-.5 1.1-1.1 1.1h-30.8c-.7 0-1.2-.5-1.2-1.1z" fill="#5dafd8"/><g><g><path d="m20.6 43c0 1.1-.9 1.9-1.9 1.9-1.1 0-1.9-.9-1.9-1.9 0-1.1.9-1.9 1.9-1.9s1.9.8 1.9 1.9z" fill="#fff"/><path d="m20 43c0 .7-.6 1.4-1.4 1.4-.7 0-1.4-.6-1.4-1.4 0-.7.6-1.4 1.4-1.4s1.4.6 1.4 1.4z" fill="#f7747e"/></g><g><circle cx="45.3" cy="43" fill="#fff" r="1.9"/><path d="m46.7 43c0 .7-.6 1.4-1.4 1.4-.7 0-1.4-.6-1.4-1.4 0-.7.6-1.4 1.4-1.4s1.4.6 1.4 1.4z" fill="#f7747e"/></g></g><g><path d="m38.6 42.4h-13.2c-.6 0-1.1-.5-1.1-1.1v-4.6c0-.6.5-1.1 1.1-1.1h13.3c.6 0 1.1.5 1.1 1.1v4.6c0 .6-.5 1.1-1.2 1.1z" fill="#e6ac43"/><g fill="#fcd66f"><path d="m25.4 36.3h.6v5.4h-.6z"/><path d="m26.8 36.3h.6v5.4h-.6z"/><path d="m28.2 36.3h.6v5.4h-.6z"/><path d="m29.6 36.3h.6v5.4h-.6z"/><path d="m31 36.3h.6v5.4h-.6z"/><path d="m32.4 36.3h.6v5.4h-.6z"/><path d="m33.8 36.3h.6v5.4h-.6z"/><path d="m35.2 36.3h.6v5.4h-.6z"/><path d="m36.6 36.3h.6v5.4h-.6z"/><path d="m38 36.3h.6v5.4h-.6z"/></g></g><path d="m38.7 17.6h-13.4c-1.3 0-2.3-1-2.3-2.3 0-1.3 1-2.3 2.3-2.3h13.5c1.3 0 2.3 1 2.3 2.3-.1 1.2-1.1 2.3-2.4 2.3z" fill="#e6ac43"/></g></g></g></svg>