<?xml version="1.0" encoding="iso-8859-1"?>
<!-- Generator: Adobe Illustrator 19.0.0, SVG Export Plug-In . SVG Version: 6.00 Build 0)  -->
<svg version="1.1" id="Layer_1" xmlns="http://www.w3.org/2000/svg" xmlns:xlink="http://www.w3.org/1999/xlink" x="0px" y="0px"
	 viewBox="0 0 502 502" style="enable-background:new 0 0 502 502;" xml:space="preserve">
<g>
	<g>
		<g>
			<path d="M366.475,40.357h-230.22c-5.523,0-10,4.477-10,10v35.972c0,5.523,4.477,10,10,10h230.22c5.522,0,10-4.477,10-10V50.357
				C376.475,44.834,371.997,40.357,366.475,40.357z M356.475,76.329h-210.22V60.357h210.22V76.329z"/>
			<path d="M89.492,165.874h143.887c5.523,0,10-4.477,10-10s-4.477-10-10-10H89.492c-5.523,0-10,4.477-10,10
				S83.969,165.874,89.492,165.874z"/>
			<path d="M274.146,165.874h17.986c5.522,0,10-4.477,10-10s-4.478-10-10-10h-17.986c-5.522,0-10,4.477-10,10
				S268.624,165.874,274.146,165.874z"/>
			<path d="M117.945,386.881c17.42,0,31.593-14.172,31.593-31.592c0-17.42-14.172-31.593-31.593-31.593
				s-31.593,14.172-31.593,31.593C86.352,372.709,100.524,386.881,117.945,386.881z M117.945,343.696
				c6.392,0,11.593,5.201,11.593,11.593c0,6.392-5.201,11.592-11.593,11.592c-6.392,0-11.593-5.2-11.593-11.592
				C106.352,348.897,111.553,343.696,117.945,343.696z"/>
			<path d="M384.055,386.881c17.42,0,31.593-14.172,31.593-31.592c0-17.42-14.173-31.593-31.593-31.593
				s-31.592,14.172-31.592,31.593C352.463,372.709,366.635,386.881,384.055,386.881z M384.055,343.696
				c6.393,0,11.593,5.201,11.593,11.593c0,6.392-5.2,11.592-11.593,11.592c-6.392,0-11.592-5.2-11.592-11.592
				C372.463,348.897,377.663,343.696,384.055,343.696z"/>
			<path d="M492,187.135h-30.393V58.326c0-27.533-22.399-49.933-49.933-49.933H90.326c-27.533,0-49.933,22.4-49.933,49.933v128.809
				H10c-5.523,0-10,4.477-10,10v90.375c0,5.523,4.477,10,10,10h30.393v123.355c0,5.523,4.477,10,10,10h7.751v29.361
				c0,18.407,14.975,33.381,33.382,33.381h5.995c18.407,0,33.382-14.975,33.382-33.381v-29.361h240.195v29.361
				c0,18.407,14.975,33.381,33.382,33.381h5.995c18.407,0,33.382-14.975,33.382-33.381v-29.361h7.751c5.522,0,10-4.477,10-10V297.51
				H492c5.522,0,10-4.477,10-10v-90.375C502,191.612,497.522,187.135,492,187.135z M40.167,277.51H20v-70.375h20.167V277.51z
				 M110.902,460.227c0,7.378-6.003,13.381-13.382,13.381h-5.995c-7.379,0-13.382-6.003-13.382-13.381v-29.361h32.759
				C110.902,430.866,110.902,460.227,110.902,460.227z M423.856,460.227c0,7.378-6.003,13.381-13.382,13.381h-5.995
				c-7.379,0-13.382-6.003-13.382-13.381v-29.361h32.759V460.227z M441.608,410.866H60.393V297.771h381.215V410.866z
				 M441.608,277.771h-0.001h-44.019c-0.53-0.284-1.088-0.531-1.681-0.721l-127.099-40.769c-5.261-1.688-10.891,1.209-12.577,6.468
				c-1.686,5.259,1.209,10.89,6.468,12.576l69.977,22.445H230.919l-128.781-41.489c-5.261-1.688-10.89,1.208-12.576,6.468
				c-1.687,5.259,1.209,10.89,6.468,12.576l69.977,22.445H60.393V128.703h381.215V277.771z M441.608,108.703H60.393V58.326
				c0-16.505,13.428-29.933,29.933-29.933h321.349c16.505,0,29.933,13.428,29.933,29.933V108.703z M482,277.51h-20.167v-70.375H482
				V277.51z"/>
		</g>
	</g>
</g>
<g>
</g>
<g>
</g>
<g>
</g>
<g>
</g>
<g>
</g>
<g>
</g>
<g>
</g>
<g>
</g>
<g>
</g>
<g>
</g>
<g>
</g>
<g>
</g>
<g>
</g>
<g>
</g>
<g>
</g>
</svg>
