<svg id="cancel" enable-background="new 0 0 32 32" viewBox="0 0 32 32" xmlns="http://www.w3.org/2000/svg"><g><g><path d="m32 16c0 .7 0 1.3-.1 2-.1.6-.2 1.2-.3 1.8-.8 3.4-2.7 6.3-5.3 8.5-.1.1-.3.2-.4.3-.9.7-1.9 1.3-3 1.8-.2.1-.4.2-.6.3-.9.4-1.7.7-2.7.9-.5.1-.9.2-1.4.3-.8.1-1.5.1-2.2.1-8.8 0-16-7.2-16-16s7.2-16 16-16 16 7.2 16 16z" fill="#ef4639"/><path d="m31.9 18c-.1.6-.2 1.2-.3 1.8-.8 3.4-2.7 6.3-5.3 8.5-.1.1-.3.2-.4.3-.9.7-1.9 1.3-3 1.8-.2.1-.4.2-.6.3-.9.4-1.7.7-2.7.9-.5.1-.9.2-1.4.3 0 0-9-9-9-9-.6-.6-.6-1.6 0-2.3l4.6-4.6-4.6-4.6c-.6-.6-.6-1.6 0-2.3.6-.6 1.6-.6 2.3 0l.2.2.4.4 1.3 1.3.4.4 1.3 1.3.4.4.7.7 4.4-4.8c.6-.6 1.6-.6 2.3 0 0 0 9 9 9 9z" fill="#e2382f"/><g><path d="m22.9 20.5c.6.6.6 1.6 0 2.3-.3.3-.7.5-1.1.5s-.8-.2-1.1-.5l-4.7-4.6-4.6 4.6c-.3.3-.7.5-1.1.5s-.8-.2-1.1-.5c-.6-.6-.6-1.6 0-2.3l4.6-4.6-4.6-4.6c-.6-.6-.6-1.6 0-2.3.6-.6 1.6-.6 2.3 0l4.6 4.6 4.5-4.6c.6-.6 1.6-.6 2.3 0 .6.6.6 1.6 0 2.3l-4.6 4.6z" fill="#fff"/></g></g></g></svg>