<svg xmlns="http://www.w3.org/2000/svg" version="1.1" xmlns:xlink="http://www.w3.org/1999/xlink" width="512" height="512" x="0" y="0" viewBox="0 0 32 32" style="enable-background:new 0 0 512 512" xml:space="preserve" class=""><g><path fill="#ef4639" d="M32 16c0 .7 0 1.3-.1 2l-.3 1.8c-.8 3.4-2.7 6.3-5.3 8.5-.1.1-.3.2-.4.3-.9.7-1.9 1.3-3 1.8l-.6.3c-.9.4-1.7.7-2.7.9-.5.1-.9.2-1.4.3-.8.1-1.5.1-2.2.1-8.8 0-16-7.2-16-16S7.2 0 16 0s16 7.2 16 16z" opacity="1" data-original="#ef4639" class=""></path><path fill="#ef4639" d="m31.9 18-.3 1.8c-.8 3.4-2.7 6.3-5.3 8.5-.1.1-.3.2-.4.3-.9.7-1.9 1.3-3 1.8l-.6.3c-.9.4-1.7.7-2.7.9-.5.1-.9.2-1.4.3l-9-9c-.6-.6-.6-1.6 0-2.3l4.6-4.6-4.6-4.6c-.6-.6-.6-1.6 0-2.3.6-.6 1.6-.6 2.3 0l.2.2.4.4 1.3 1.3.4.4 1.3 1.3.4.4.7.7L20.6 9c.6-.6 1.6-.6 2.3 0l9 9z" opacity="1" data-original="#e2382f" class=""></path><path fill="#ffffff" d="M22.9 20.5c.6.6.6 1.6 0 2.3-.3.3-.7.5-1.1.5s-.8-.2-1.1-.5L16 18.2l-4.6 4.6c-.3.3-.7.5-1.1.5s-.8-.2-1.1-.5c-.6-.6-.6-1.6 0-2.3l4.6-4.6-4.6-4.6c-.6-.6-.6-1.6 0-2.3.6-.6 1.6-.6 2.3 0l4.6 4.6L20.6 9c.6-.6 1.6-.6 2.3 0 .6.6.6 1.6 0 2.3l-4.6 4.6z" opacity="1" data-original="#ffffff" class=""></path></g></svg>